<?xml version="1.0" standalone="no"?>
<!DOCTYPE svg PUBLIC "-//W3C//DTD SVG 20010904//EN"
 "http://www.w3.org/TR/2001/REC-SVG-20010904/DTD/svg10.dtd">
<svg version="1.0" xmlns="http://www.w3.org/2000/svg"
 width="146.000000pt" height="146.000000pt" viewBox="0 0 146.000000 146.000000"
 preserveAspectRatio="xMidYMid meet">
<metadata>
Created by potrace 1.11, written by Peter Selinger 2001-2013
</metadata>
<g transform="translate(0.000000,146.000000) scale(0.100000,-0.100000)"
fill="#000000" stroke="none">
<path d="M668 1405 c-2 -1 -35 -5 -75 -9 -87 -7 -141 -18 -255 -52 l-86 -27
10 -28 c12 -34 17 -35 84 -9 50 18 152 45 224 57 19 3 94 6 165 5 139 0 237
-16 365 -58 70 -24 75 -24 87 -8 7 10 13 23 13 29 0 16 -145 62 -255 81 -76
13 -268 27 -277 19z"/>
<path d="M534 1305 c-71 -13 -199 -50 -224 -65 -20 -13 -6 -34 46 -68 51 -35
74 -40 74 -18 0 22 25 36 82 45 69 11 84 3 92 -56 10 -64 14 -85 30 -173 8
-41 17 -93 21 -115 4 -22 9 -49 11 -60 2 -11 6 -29 8 -40 2 -11 14 -80 26
-152 13 -73 25 -131 27 -129 6 6 27 112 69 351 20 116 38 217 39 227 2 9 7 38
11 65 12 86 17 92 66 87 66 -7 106 -23 113 -45 9 -26 25 -24 71 9 44 33 69 60
61 68 -8 8 -140 52 -178 58 -19 4 -52 9 -74 12 -22 3 -49 6 -59 8 -14 2 -35
-16 -69 -56 -27 -33 -50 -58 -52 -56 -1 2 -23 27 -49 57 -25 30 -52 56 -59 56
-6 1 -44 -4 -83 -10z"/>
<path d="M210 189 c0 -12 23 -24 45 -24 17 0 20 -7 22 -45 2 -62 1 -60 18 -60
11 0 15 12 15 50 0 41 8 58 23 48 6 -4 48 25 42 30 -9 9 -165 10 -165 1z"/>
<path d="M444 189 c-15 -25 124 -35 148 -11 6 6 10 13 8 13 -22 6 -152 3 -156
-2z"/>
<path d="M674 191 c-2 -2 -4 -22 -4 -43 l0 -38 65 0 c47 0 63 -3 60 -12 -3 -8
-23 -13 -53 -12 -43 1 -72 -9 -72 -25 0 -9 132 -8 146 1 6 4 10 17 8 30 -1 13
-3 29 -3 36 -1 8 -20 12 -61 12 -33 0 -60 4 -60 10 0 10 8 12 67 14 26 1 68
23 52 27 -13 4 -141 4 -145 0z"/>
<path d="M896 192 c-2 -4 -3 -36 -2 -72 l2 -65 54 -1 c55 -1 90 9 90 25 0 4
-19 8 -42 8 -79 1 -76 -2 -73 52 1 34 -2 52 -11 55 -7 3 -15 2 -18 -2z"/>
<path d="M1093 187 c-7 -12 38 -24 87 -23 44 1 70 10 70 25 0 9 -151 8 -157
-2z"/>
<path d="M450 125 c13 -15 102 -21 134 -9 37 14 11 24 -65 24 -71 0 -80 -2
-69 -15z"/>
<path d="M1094 98 c2 -30 7 -43 17 -43 8 0 15 7 15 15 1 8 2 21 3 28 1 8 17
12 47 12 37 0 45 -3 43 -17 -3 -33 1 -42 16 -37 10 4 15 20 15 45 l0 39 -79 0
-79 0 2 -42z"/>
<path d="M440 78 c0 -25 128 -34 152 -10 7 7 10 13 8 13 -18 6 -160 3 -160 -3z"/>
</g>
</svg>
